PathFileType	4	(X/Y/Z)	C:\Users\Basilio\Documents\Thesis Gigler\squatting_fais\c3dfiles\038\SJ_pre3\markers_experimental.trc
DataRate	CameraRate	NumFrames	NumMarkers	Units	OrigDataRate	OrigDataStartFrame	OrigNumFrames
200.000000	200.000000	4	61	mm	200.000000	1801	2059
Frame#	Time	FHD			LBHD			RBHD			C7			T10			CLAV			LSHO			LUUPA			LMUPA			LDUPA			LLEP			LMEP			LRAD			LUL			LRFIN			RSHO			RUPA1			RMUPA			RDUPA			RLEP			RMEP			RRAD			RUL			RUFIN			LASI			RASI			USACR			LSACR			RSACR			LTHI1			LTHI2			LTHI3			LTHI4			LLFC			LMFC			LTIB1			LTIB2			LTIB3			LTIB4			LLMAL			LMMAL			LHEE			LMT1			LMT2			LMT5			RTHI			RTHI2			RTHI3			RTHI4			RLFC			RMFC			RTIB1			RTIB2			RTIB3			RTIB4			RLMAL			RMMAL			RHEE			RMT1			RMT2			RMT5			
		X1	Y1	Z1	X2	Y2	Z2	X3	Y3	Z3	X4	Y4	Z4	X5	Y5	Z5	X6	Y6	Z6	X7	Y7	Z7	X8	Y8	Z8	X9	Y9	Z9	X10	Y10	Z10	X11	Y11	Z11	X12	Y12	Z12	X13	Y13	Z13	X14	Y14	Z14	X15	Y15	Z15	X16	Y16	Z16	X17	Y17	Z17	X18	Y18	Z18	X19	Y19	Z19	X20	Y20	Z20	X21	Y21	Z21	X22	Y22	Z22	X23	Y23	Z23	X24	Y24	Z24	X25	Y25	Z25	X26	Y26	Z26	X27	Y27	Z27	X28	Y28	Z28	X29	Y29	Z29	X30	Y30	Z30	X31	Y31	Z31	X32	Y32	Z32	X33	Y33	Z33	X34	Y34	Z34	X35	Y35	Z35	X36	Y36	Z36	X37	Y37	Z37	X38	Y38	Z38	X39	Y39	Z39	X40	Y40	Z40	X41	Y41	Z41	X42	Y42	Z42	X43	Y43	Z43	X44	Y44	Z44	X45	Y45	Z45	X46	Y46	Z46	X47	Y47	Z47	X48	Y48	Z48	X49	Y49	Z49	X50	Y50	Z50	X51	Y51	Z51	X52	Y52	Z52	X53	Y53	Z53	X54	Y54	Z54	X55	Y55	Z55	X56	Y56	Z56	X57	Y57	Z57	X58	Y58	Z58	X59	Y59	Z59	X60	Y60	Z60	X61	Y61	Z61	

1802	9.005000000000001	-249.1593170166016	1754.84375	-892.3226318359377	-382.9536132812501	1699.076171875	-988.714538574219	-409.1714172363282	1684.384399414063	-845.650329589844	-449.5462646484376	1527.531127929688	-905.319519042969	-464.1583862304689	1240.705444335938	-902.0275878906252	-305.6306762695313	1496.158203125	-922.6768798828127	-364.3283996582032	1535.764526367188	-1087.789916992188	-402.6490173339845	1368.86376953125	-1262.245361328125	-358.8264465332032	1344.146728515625	-1254.186157226563	-384.9617004394532	1311.223510742188	-1297.804321289063	-366.9889526367188	1250.353759765625	-1315.729125976563	-441.357147216797	1219.452270507813	-1294.357543945313	-332.5148620605469	1040.603271484375	-1112.683715820313	-290.6923217773438	1005.379211425781	-1162.698974609375	-308.4607238769532	1003.99951171875	-1051.769409179688	-327.8190307617188	1522.686889648438	-750.8363037109376	-298.1775207519532	1353.0556640625	-596.8981323242189	-278.3872070312501	1313.17529296875	-617.8716430664064	-289.6560058593751	1293.10107421875	-562.6262817382814	-275.8000183105469	1218.766723632813	-542.5603637695314	-357.1855773925782	1200.180908203125	-534.1959838867189	-311.9505310058594	985.413757324219	-692.1279907226564	-250.5155181884766	961.314636230469	-665.9121704101564	-283.1889343261719	973.7459716796877	-758.9732666015626	-322.3205261230469	1043.601928710938	-1034.084716796875	-301.9476623535157	1049.83154296875	-785.4216308593752	-476.7326965332032	1103.554321289063	-897.082702636719	-493.3114624023439	1073.9873046875	-922.8892822265627	-485.1777648925782	1073.347900390625	-866.4426879882815	-395.9437255859376	729.0691528320314	-1100.537231445313	-368.9282226562501	648.0610351562501	-1104.433959960938	-320.3704833984376	650.6052856445314	-1092.108520507813	-396.0352783203126	599.2949218750001	-1081.343994140625	-393.8790283203126	538.3208007812501	-1077.837646484375	-351.6690368652344	518.0335693359376	-967.3762817382815	-354.6466064453126	342.8262939453126	-1037.222045898438	-419.3135986328126	309.2140808105469	-1091.193481445313	-376.6867675781251	300.3713989257813	-1072.996337890625	-385.5151367187501	218.8239135742188	-1049.751708984375	-479.7124328613282	86.89737701416017	-1055.511840820313	-420.128631591797	95.33760070800783	-1000.574279785156	-505.6302795410157	44.79327774047852	-991.4446411132815	-309.5035400390626	47.65172958374024	-1073.81787109375	-326.3251647949219	49.73560333251955	-1121.612670898438	-383.2357482910157	30.49397087097169	-1149.144897460938	-389.0843505859376	785.1841430664065	-716.8393554687501	-358.2921447753907	724.9179687500001	-708.8522949218751	-325.0220336914063	724.2745971679689	-710.0197753906251	-393.0728759765626	649.0247802734376	-728.0230712890626	-389.1265258789064	512.0579833984376	-732.5081176757814	-372.3812255859376	505.8075256347657	-851.4522705078127	-355.5532531738282	332.9203491210938	-745.4102172851564	-441.7768554687501	259.8601379394532	-718.2761840820314	-394.2898864746095	259.4148559570313	-721.3709716796876	-382.7963867187501	206.8752899169922	-746.7623291015626	-463.0796813964845	93.18393707275392	-726.9057006835939	-416.2943725585939	91.60047149658205	-797.1018676757815	-505.2976379394532	41.01531600952149	-800.230163574219	-297.6194152832032	48.29111480712892	-726.6027221679689	-312.9547729492188	53.06678771972658	-682.9400024414064	-366.8681945800782	35.36473464965821	-650.5273437500001	
1803	9.01	-249.3219451904297	1754.885620117188	-892.0004882812502	-382.8860473632813	1699.206176757813	-988.490905761719	-409.352264404297	1684.421752929688	-845.475769042969	-449.7295227050782	1527.636352539063	-905.0683593750002	-464.2061157226564	1240.723022460938	-901.8933105468752	-305.7827758789063	1496.301513671875	-922.4522705078127	-364.5257263183594	1535.871215820313	-1087.572509765625	-402.7944335937501	1368.936767578125	-1262.049682617188	-358.8956298828126	1344.274536132813	-1254.026733398438	-385.0306701660157	1311.285766601563	-1297.614624023438	-367.0140380859376	1250.498657226563	-1315.614990234375	-441.4789428710939	1219.5771484375	-1294.150390625	-332.4430236816407	1040.724609375	-1112.631713867188	-290.6530761718751	1005.433044433594	-1162.61474609375	-308.2711791992188	1004.029052734375	-1051.60107421875	-328.0900573730469	1522.71923828125	-750.6630859375001	-298.2641601562501	1352.996826171875	-596.6925659179689	-278.4821777343751	1313.138061523438	-617.7537841796876	-289.7196655273438	1293.065673828125	-562.4250488281251	-275.7752075195313	1218.814086914063	-542.4152221679689	-357.1643066406251	1200.172973632813	-533.9127807617189	-311.6988525390626	985.723327636719	-691.8759765625001	-250.5044403076172	961.3171386718752	-665.6983032226564	-283.0994262695313	973.7549438476565	-758.7714233398439	-322.1252746582032	1043.781616210938	-1034.045776367188	-301.9292297363282	1049.933349609375	-785.1981201171877	-476.6585388183595	1103.513061523438	-896.9631958007815	-493.2614135742189	1073.987182617188	-922.6619873046877	-485.140106201172	1073.26953125	-866.1805419921877	-396.1945800781251	729.2424316406251	-1100.244873046875	-369.1555786132813	648.1282348632814	-1104.112182617188	-320.4942626953126	650.5620727539064	-1091.86279296875	-396.238494873047	599.4360351562501	-1080.977172851563	-394.1890563964845	538.3939819335939	-1077.470825195313	-352.0353088378907	518.0249023437501	-967.116394042969	-354.7402954101563	343.0896301269532	-1036.995727539063	-419.4095458984376	309.2487487792969	-1091.033447265625	-376.9844055175782	300.5437316894532	-1072.861694335938	-385.7697143554689	218.9227905273438	-1049.609497070313	-479.7274169921876	86.90347290039064	-1055.501342773438	-420.2303466796876	95.36016845703126	-1000.532104492188	-505.5538940429689	44.87699890136719	-991.4073486328127	-309.2921447753907	47.62090682983399	-1073.785400390625	-326.3123779296876	49.76978683471681	-1121.620239257813	-383.2408447265626	30.48288345336915	-1149.129638671875	-389.2749023437501	785.2518310546877	-716.7447509765626	-358.7999572753907	725.3060913085939	-708.7268676757814	-325.2424316406251	724.3090820312501	-710.0259399414064	-393.4411010742189	649.2258300781251	-728.1235351562501	-389.6037902832032	512.1346435546876	-732.5922241210939	-372.6923522949219	505.920623779297	-851.4567871093752	-355.8575134277344	333.0087585449219	-745.4635009765626	-442.0151367187501	259.8731384277344	-718.2934570312501	-394.5659484863282	259.4641723632813	-721.4289550781251	-382.9828186035157	207.0222320556641	-746.7438354492189	-463.0939941406251	93.1834182739258	-726.9250488281251	-416.3558349609376	91.60572052001955	-797.0834960937502	-505.3245849609376	40.98550415039063	-800.2339477539065	-297.5863952636719	48.29669570922853	-726.5991821289064	-312.9503784179688	53.02944564819337	-682.9370727539064	-366.8697814941407	35.36534500122071	-650.5301513671876	
1804	9.015000000000001	-249.5008392333985	1754.84130859375	-891.4724731445315	-382.9441528320313	1699.349487304688	-988.230895996094	-409.6127014160157	1684.480590820313	-845.1836547851565	-449.934295654297	1527.771484375	-904.858581542969	-464.3328247070314	1240.761108398438	-901.730651855469	-305.8911743164063	1496.322265625	-922.2468261718752	-364.6871948242188	1535.894409179688	-1087.306030273438	-402.9829101562501	1368.997802734375	-1261.817749023438	-359.0774536132813	1344.297485351563	-1253.806396484375	-385.0932617187501	1311.38623046875	-1297.5224609375	-367.0126647949219	1250.648559570313	-1315.547241210938	-441.567108154297	1219.662353515625	-1294	-332.4796752929688	1040.835327148438	-1112.51904296875	-290.6194152832032	1005.543823242188	-1162.495239257813	-308.0482788085938	1004.109558105469	-1051.549926757813	-328.2968444824219	1522.728149414063	-750.4637451171876	-298.3462829589844	1353.035400390625	-596.5526733398439	-278.5615234375001	1313.155639648438	-617.5743408203126	-289.7879333496094	1293.117797851563	-562.1999511718751	-275.7716674804688	1218.898193359375	-542.2233276367189	-357.2069702148438	1200.143432617188	-533.5994262695314	-311.6590881347657	985.7175292968752	-691.6094360351564	-250.4759979248047	961.3614501953127	-665.4594726562501	-283.0581970214844	973.8378906250002	-758.5463256835939	-321.9757080078126	1043.907348632813	-1033.868408203125	-301.8534545898438	1050.133666992188	-785.0432128906252	-476.6450195312501	1103.498168945313	-896.8311767578127	-493.220672607422	1073.99169921875	-922.500183105469	-485.068328857422	1073.242919921875	-865.9736938476565	-396.3572692871095	729.3792724609376	-1099.917236328125	-369.4135742187501	648.2395019531251	-1103.808471679688	-320.8040161132813	650.5647583007814	-1091.507202148438	-396.5125427246095	599.5308837890626	-1080.70361328125	-394.5012512207032	538.5914916992189	-1077.122680664063	-352.4291076660157	518.0969848632814	-966.8818359375002	-354.9549865722657	343.2265319824219	-1036.776977539063	-419.568817138672	309.2637023925782	-1090.898559570313	-377.3576049804688	300.7573852539063	-1072.687377929688	-385.9327087402345	219.0626983642579	-1049.555297851563	-479.7239990234376	86.88513183593751	-1055.50927734375	-419.8829956054689	95.6067581176758	-1000.3095703125	-505.6470642089845	44.82796478271485	-991.4009399414065	-309.4498901367188	47.78162002563477	-1073.808471679688	-326.3076171875001	49.78117752075197	-1121.610107421875	-383.2492065429688	30.48995971679688	-1149.145629882813	-389.4551391601564	785.353698730469	-716.7296752929689	-358.6858215332032	725.7950439453126	-708.2729492187501	-325.5344238281251	724.2376098632814	-710.1060791015626	-393.8564453125001	649.3086547851564	-728.2371826171876	-389.9847412109376	512.1779785156251	-732.7188720703126	-373.3777465820313	506.1257934570314	-851.9050903320315	-356.2902221679688	333.2000427246094	-745.4519653320314	-442.2882385253907	259.8731384277344	-718.2875976562501	-394.7753906250001	259.5462951660157	-721.4326171875001	-383.0528564453126	207.1559295654297	-746.6858520507814	-463.1016235351564	93.17478942871095	-726.9014282226564	-416.3982849121095	91.62691497802736	-797.109802246094	-505.2992553710939	40.96301269531251	-800.2217407226565	-297.5949096679688	48.31568527221681	-726.6293334960939	-312.9134826660157	53.02197647094728	-682.9657592773439	-366.8859863281251	35.37960433959962	-650.5200805664064	
1805	9.02	-249.6694641113282	1754.8427734375	-890.9874267578127	-382.9463500976563	1699.55615234375	-987.9505004882815	-409.869598388672	1684.52978515625	-844.9560546875002	-450.1302490234376	1527.807006835938	-904.6351318359377	-464.3676147460939	1240.804077148438	-901.5339965820315	-306.0677490234376	1496.3759765625	-921.953308105469	-364.8789062500001	1535.939575195313	-1087.025634765625	-403.1843872070314	1369.074462890625	-1261.580322265625	-359.0692138671876	1344.425659179688	-1253.6953125	-385.1740722656251	1311.536254882813	-1297.309204101563	-367.0462951660157	1250.776245117188	-1315.338745117188	-441.6318969726564	1219.758178710938	-1293.819213867188	-332.3410034179688	1040.919555664063	-1112.357421875	-290.6113586425782	1005.677368164063	-1162.453491210938	-307.8873901367188	1004.21630859375	-1051.434204101563	-328.4956665039063	1522.7822265625	-750.2802734375001	-298.4279785156251	1353.057983398438	-596.2319946289064	-278.6612243652344	1313.239868164063	-617.4140625000001	-289.9025878906251	1293.132446289063	-561.8995361328126	-275.7981262207032	1218.977294921875	-542.0443115234376	-357.2652893066407	1200.147338867188	-533.3472290039064	-311.6632995605469	985.7678833007815	-691.3284912109376	-250.4902496337891	961.3911132812502	-665.2069702148439	-283.0631103515626	973.9919433593752	-758.3038330078126	-321.9471130371094	1044.019775390625	-1033.682006835938	-301.8523254394532	1050.251098632813	-784.8762207031252	-476.5903930664064	1103.429565429688	-896.6462402343752	-493.1502685546876	1073.97314453125	-922.3565673828127	-485.0115356445314	1073.195678710938	-865.7916259765627	-396.4966735839845	729.4946899414064	-1099.645874023438	-369.6394958496094	648.3215942382814	-1103.447509765625	-321.1546936035157	650.5491943359376	-1091.140869140625	-396.8126525878907	599.6904907226564	-1080.342407226563	-394.8799743652345	538.7052001953126	-1076.8359375	-352.9006347656251	518.2636108398439	-966.476257324219	-355.1996154785157	343.3029174804688	-1036.505737304688	-419.7107238769532	309.3685302734376	-1090.78564453125	-377.5278930664063	300.8136291503907	-1072.498779296875	-386.0170288085939	219.1316070556641	-1049.486572265625	-479.721160888672	86.8712844848633	-1055.469848632813	-419.914031982422	95.65787506103517	-1000.281799316406	-505.5470581054689	44.87128829956055	-991.4760742187502	-309.3845825195313	47.61792755126954	-1073.801879882813	-326.2618713378907	49.74941635131837	-1121.653564453125	-383.2308349609376	30.49008941650391	-1149.132568359375	-389.5843505859376	785.4385375976565	-716.6665649414064	-358.9236145019532	725.8828125000001	-708.2410278320314	-325.8547668457032	724.3046264648439	-710.0198364257814	-394.2681579589845	649.4249877929689	-728.1804809570314	-390.3656616210939	512.3072509765626	-732.8043823242189	-373.5788879394532	506.2011718750001	-851.5819091796877	-356.6979064941407	333.4432067871094	-745.4786376953126	-442.5741271972657	259.9173889160157	-718.2789916992189	-394.9675292968751	259.6570129394532	-721.4564819335939	-383.2633666992188	207.1544952392579	-746.7395019531251	-463.1325988769532	93.17455291748048	-726.9158935546876	-416.3867797851564	91.63770294189455	-797.1018066406252	-505.3272399902345	40.99708557128907	-800.2349243164065	-297.5880737304688	48.31132888793947	-726.6121826171876	-312.9501953125001	53.01539611816408	-682.9393920898439	-366.8256835937501	35.33970642089844	-650.5252685546876	
